<?xml version="1.0" encoding="UTF-8"?><svg id="Layer_1" xmlns="http://www.w3.org/2000/svg" viewBox="0 0 267.94 56.84"><defs><style>.cls-1{fill:#0062c2;}.cls-1,.cls-2{stroke-width:0px;}.cls-2{fill:#fff;}</style></defs><path class="cls-2" d="M156.66,11.93l-2.06-4.87-.74,1.09v3.77h-2.53V.19h2.53v4.91l2.8-4.91h2.95l-3.16,4.82,3.31,6.92h-3.11Z"/><path class="cls-2" d="M169.3,6.05c0,.97-.11,1.83-.33,2.58-.22.75-.53,1.39-.93,1.9-.4.52-.89.91-1.47,1.17-.58.27-1.23.4-1.95.4s-1.36-.13-1.93-.4c-.57-.26-1.06-.65-1.45-1.17-.4-.52-.7-1.15-.92-1.9-.21-.75-.32-1.62-.32-2.59s.11-1.82.32-2.57c.21-.75.52-1.38.93-1.9.4-.52.89-.91,1.46-1.18.57-.27,1.22-.41,1.93-.41s1.37.13,1.95.4c.57.27,1.06.65,1.47,1.17.4.51.71,1.15.92,1.9.21.75.32,1.61.32,2.58ZM166.63,6.03c0-.59-.04-1.12-.12-1.6-.08-.48-.2-.88-.37-1.22-.17-.33-.37-.59-.63-.77s-.55-.27-.88-.27-.63.09-.88.27c-.25.18-.45.44-.61.77-.16.33-.28.74-.37,1.22-.08.48-.12,1.01-.12,1.6s.04,1.14.12,1.62c.08.48.2.88.37,1.21.16.33.37.58.61.76.25.17.54.26.88.26s.64-.09.89-.27c.25-.18.46-.43.62-.76.16-.33.28-.73.37-1.21.08-.48.12-1.01.12-1.61Z"/><path class="cls-2" d="M176.82,11.93l-3.57-7.5v7.5h-2.35V.19h2.49l3.4,7.22V.19h2.4v11.74h-2.38Z"/><path class="cls-2" d="M181.4,11.93V.19h2.53v11.74h-2.53Z"/><path class="cls-2" d="M194.22,9.37c-.08.23-.22.5-.4.81-.18.31-.43.61-.75.9-.32.29-.71.53-1.17.73s-1.02.3-1.67.3c-.69,0-1.32-.12-1.89-.36-.57-.24-1.07-.6-1.48-1.09-.41-.49-.73-1.11-.96-1.86-.23-.75-.34-1.64-.34-2.67s.12-1.93.37-2.7c.24-.77.58-1.41,1.01-1.91.43-.51.94-.89,1.52-1.14.58-.25,1.22-.37,1.9-.37.64,0,1.18.08,1.63.25.45.17.82.37,1.12.62.3.25.54.52.71.82.17.3.31.57.4.83l-2.08,1.1c-.03-.11-.08-.24-.16-.4-.08-.16-.18-.31-.32-.46-.13-.15-.31-.28-.51-.39-.21-.11-.46-.16-.76-.16-.72,0-1.26.32-1.63.96-.37.64-.56,1.59-.56,2.85s.2,2.26.59,2.9c.39.64.93.96,1.62.96.33,0,.6-.06.82-.18.22-.12.4-.26.55-.42.14-.16.26-.32.33-.49.08-.17.14-.3.17-.4l1.96.98Z"/><path class="cls-2" d="M201.21,11.93l-.61-2.46h-3.12l-.6,2.46h-2.59l3.14-11.74h3.44l3.11,11.74h-2.75ZM199.04,2.5l-1.15,5.03h2.28l-1.13-5.03Z"/><path class="cls-2" d="M216.13,11.93l-.06-8.6-1.96,8.6h-2.25l-1.95-8.6-.04,8.6h-2.33l.28-11.74h3.51l1.73,8.24,1.77-8.24h3.4l.32,11.74h-2.42Z"/><path class="cls-2" d="M220.53,11.93V.19h2.53v11.74h-2.53Z"/><path class="cls-2" d="M231.14,11.93l-3.57-7.5v7.5h-2.35V.19h2.49l3.4,7.22V.19h2.4v11.74h-2.38Z"/><path class="cls-2" d="M244.47,6.05c0,.97-.11,1.83-.33,2.58-.22.75-.53,1.39-.93,1.9-.4.52-.89.91-1.47,1.17-.58.27-1.23.4-1.95.4s-1.36-.13-1.93-.4c-.57-.26-1.06-.65-1.45-1.17-.4-.52-.7-1.15-.92-1.9-.21-.75-.32-1.62-.32-2.59s.11-1.82.32-2.57c.21-.75.52-1.38.93-1.9.4-.52.89-.91,1.46-1.18.57-.27,1.22-.41,1.93-.41s1.37.13,1.95.4c.57.27,1.06.65,1.47,1.17.4.51.71,1.15.92,1.9.21.75.32,1.61.32,2.58ZM241.8,6.03c0-.59-.04-1.12-.12-1.6-.08-.48-.2-.88-.37-1.22-.17-.33-.38-.59-.63-.77s-.55-.27-.88-.27-.63.09-.88.27-.45.44-.61.77c-.16.33-.28.74-.37,1.22-.08.48-.12,1.01-.12,1.6s.04,1.14.12,1.62c.08.48.2.88.37,1.21.16.33.37.58.61.76.25.17.54.26.88.26s.64-.09.89-.27c.25-.18.46-.43.62-.76.16-.33.28-.73.37-1.21.08-.48.12-1.01.12-1.61Z"/><path class="cls-2" d="M246.07,11.93V.19h2.53v9.54h3.74v2.2h-6.27Z"/><path class="cls-2" d="M256.45,2.31v9.62h-2.55V2.31h-2.52V.19h7.59v2.12h-2.52Z"/><path class="cls-2" d="M265.19,11.93l-.61-2.46h-3.12l-.6,2.46h-2.59l3.14-11.74h3.44l3.11,11.74h-2.75ZM263.02,2.5l-1.15,5.03h2.28l-1.13-5.03Z"/><path class="cls-1" d="M30.37,56.25l-2.2-7.21h-13.45l-2.23,7.21H3.16l10.2-30.13,14.67-6.58,12.43,36.71h-10.08ZM21.44,27.1l-4.54,14.56h9.11l-4.57-14.56Z"/><path class="cls-1" d="M74.44,50.37c-.86,1.23-1.97,2.31-3.34,3.25-.59.41-1.25.81-1.99,1.19-.74.38-1.58.72-2.5,1.03-.93.3-1.94.55-3.05.73-1.1.19-2.3.28-3.59.28-2.6,0-5.03-.42-7.31-1.26-2.28-.84-4.26-2.08-5.96-3.74-1.7-1.65-3.04-3.7-4.03-6.15-.99-2.45-1.48-5.29-1.48-8.51s.53-6.06,1.6-8.51c1.06-2.45,2.48-4.5,4.25-6.15,1.77-1.65,3.8-2.89,6.09-3.72,2.29-.83,4.66-1.25,7.1-1.25,1.62,0,3.1.16,4.42.47,1.33.31,2.51.7,3.56,1.16,1.04.46,1.95.96,2.71,1.51.76.55,1.4,1.06,1.9,1.54.51.48.89.88,1.14,1.22.25.33.39.51.41.53l-4.69,6.36c-.61-.84-1.35-1.59-2.23-2.26-.37-.29-.79-.58-1.26-.85-.47-.27-.98-.52-1.54-.73-.56-.21-1.16-.39-1.8-.51-.64-.13-1.33-.19-2.05-.19-1.46,0-2.8.26-4.01.78-1.21.52-2.25,1.26-3.12,2.24-.87.98-1.55,2.16-2.04,3.54-.49,1.39-.73,2.94-.73,4.66s.23,3.28.7,4.67c.47,1.4,1.14,2.59,2.01,3.57.87.99,1.91,1.75,3.12,2.29,1.21.54,2.55.81,4.01.81s2.76-.24,3.9-.72c1.13-.48,2.08-1,2.84-1.57.9-.66,1.67-1.43,2.31-2.29l4.63,6.59Z"/><path class="cls-1" d="M101.8,56.25l-2.2-7.21h-13.45l-2.23,7.21h-9.35l12.89-38.09h11.51l12.89,38.09h-10.08ZM92.87,27.1l-4.54,14.56h9.11l-4.57-14.56Z"/><path class="cls-1" d="M149.26,37.18c0,1.72-.15,3.31-.45,4.76-.3,1.46-.73,2.79-1.27,4-.55,1.21-1.19,2.3-1.92,3.28-.73.98-1.54,1.84-2.42,2.58-1.72,1.52-3.74,2.65-6.05,3.37-2.31.72-5.01,1.08-8.1,1.08h-13.74V18.17h13.74c3.09,0,5.78.36,8.09,1.08,2.3.72,4.33,1.84,6.06,3.34.86.74,1.66,1.6,2.4,2.58.74.98,1.38,2.07,1.92,3.28.54,1.21.96,2.54,1.27,4,.31,1.46.47,3.03.47,4.73ZM139.57,37.12c0-2.13-.27-3.92-.82-5.36-.55-1.45-1.28-2.62-2.2-3.52-.9-.92-1.97-1.6-3.22-2.05-1.25-.45-2.75-.67-4.51-.67h-4.01v23.12h4.01c1.72,0,3.21-.22,4.48-.67,1.27-.45,2.35-1.12,3.25-2.02s1.65-2.1,2.2-3.54c.55-1.45.82-3.2.82-5.27Z"/><path class="cls-1" d="M155.03,56.25V18.17h25.69v7.35h-16.2v7.27h15.06v7.5h-15.06v8.35h16.79v7.62h-26.28Z"/><path class="cls-1" d="M219.84,56.25l-.23-25.75-7.73,25.75h-8.53l-7.68-25.75-.29,25.75h-8.82l1.2-38.09h12.04l8.06,26.81,8.09-26.81h12.01l1.26,38.09h-9.38Z"/><path class="cls-1" d="M254.82,40.9v15.35h-9.49v-15.35l-13.18-22.73h10.49l7.44,15.35,7.44-15.35h10.43l-13.12,22.73Z"/><path class="cls-2" d="M10.23,33.86c1.49-2.59-.42-4.44-.42-4.44-.07-.08-.14-.15-.2-.23.37-.46.51-.99.3-1.42-.23-.49-.84-.73-1.54-.65-2.1-6.15,8.92-11.97,8.92-11.97h-.09c.12-.06.18-.1.19-.1l.15.26c-.06.03-5.68,2.98-8.02,6.88l.57-.11,9.62-1.82,7.5-6.28,7.88-6.6-19.71,3.74L0,23.98l7.24-1.37c-1.05,1.85-.89,3.63-.49,5.25-.52.49-.73,1.13-.5,1.63.19.4.62.63,1.14.66.05.17.09.34.13.51.53,2.29-1.62,4.36-1.62,4.36l1.98-.05c1.98-.05,2.35-1.11,2.35-1.11Z"/><path class="cls-2" d="M23.05,17.85l-3.21,2.68h-.08s-4.03.78-4.03.78l-5.51,1.04,1.67,3.54c.11.23.31.4.59.53,1.49.67,5.23-.09,9.21-1.98,3.98-1.88,6.93-4.3,7.36-5.87.08-.3.07-.56-.04-.79l-1.67-3.54-4.3,3.6Z"/><text x="93" y="9.5" text-anchor="middle" font-size="10" font-family="system-ui,-apple-system,sans-serif" fill="#fff" letter-spacing="0.7" opacity="0.65">POWERED BY</text></svg>